<!-- Generated by IcoMoon.io -->
<svg version="1.1" xmlns="http://www.w3.org/2000/svg" width="111" height="32" viewBox="0 0 111 32">
<title>Asset-6</title>
<path fill="#6d6e71" d="M55.18 14.715q0.971 1.17 0.971 3.405v3.055c0.001 0.068 0.002 0.147 0.002 0.227 0 1.732-0.34 3.384-0.958 4.893l0.031-0.086h-2.533c0.53-1.473 0.836-3.173 0.836-4.945 0-0.031-0-0.063-0-0.094l0 0.005v-3.039c0.007-0.083 0.011-0.18 0.011-0.277 0-0.567-0.129-1.104-0.359-1.583l0.010 0.022c-0.23-0.322-0.602-0.529-1.023-0.529-0.046 0-0.092 0.002-0.137 0.007l0.006-0.001c-0.043-0.005-0.093-0.008-0.143-0.008-0.425 0-0.802 0.207-1.035 0.527l-0.003 0.004c-0.227 0.458-0.36 0.998-0.36 1.569 0 0.093 0.004 0.185 0.010 0.276l-0.001-0.012v3.525q0 2.36-1.102 3.551c-0.736 0.788-1.822 1.185-3.269 1.185s-2.501-0.397-3.232-1.196-1.091-1.979-1.091-3.54v-3.379q0-2.324 1.044-3.53c0.705-0.729 1.692-1.182 2.784-1.182 0.11 0 0.219 0.005 0.326 0.014l-0.014-0.001c0.046-0.002 0.099-0.003 0.153-0.003 0.693 0 1.345 0.173 1.916 0.478l-0.022-0.011c0.531 0.306 0.934 0.784 1.138 1.356l0.006 0.018c0.27-0.59 0.697-1.068 1.229-1.392l0.014-0.008c0.523-0.278 1.144-0.442 1.803-0.442 0.053 0 0.105 0.001 0.158 0.003l-0.008-0c0.076-0.006 0.165-0.009 0.254-0.009 1.024 0 1.946 0.442 2.584 1.145l0.003 0.003zM47.869 18.308c0.002-0.051 0.003-0.11 0.003-0.17 0-0.485-0.062-0.955-0.178-1.404l0.009 0.039c-0.079-0.323-0.266-0.595-0.518-0.781l-0.004-0.003c-0.27-0.147-0.591-0.233-0.932-0.233-0.040 0-0.079 0.001-0.118 0.003l0.005-0c-0.034-0.002-0.073-0.004-0.112-0.004-0.325 0-0.631 0.087-0.894 0.238l0.009-0.005c-0.258 0.187-0.445 0.459-0.52 0.774l-0.002 0.009c-0.098 0.41-0.154 0.881-0.154 1.365 0 0.060 0.001 0.119 0.003 0.179l-0-0.009v3.337c-0.002 0.051-0.002 0.11-0.002 0.17 0 0.484 0.056 0.955 0.162 1.407l-0.008-0.042c0.077 0.323 0.264 0.593 0.518 0.775l0.004 0.003c0.257 0.15 0.565 0.238 0.894 0.238 0.037 0 0.073-0.001 0.109-0.003l-0.005 0c0.031 0.002 0.067 0.003 0.104 0.003 0.345 0 0.669-0.088 0.951-0.243l-0.010 0.005c0.257-0.187 0.443-0.456 0.52-0.769l0.002-0.009c0.108-0.41 0.17-0.88 0.17-1.365 0-0.060-0.001-0.119-0.003-0.179l0 0.009z"></path>
<path fill="#6d6e71" d="M66.141 14.752q1.102 1.201 1.102 3.54v2.883c0.001 0.061 0.002 0.133 0.002 0.205 0 1.739-0.34 3.399-0.957 4.916l0.031-0.087h-2.569c0.526-1.475 0.831-3.177 0.831-4.951 0-0.029-0-0.059-0-0.088l0 0.005v-2.867c0.002-0.053 0.003-0.115 0.003-0.178 0-0.482-0.058-0.95-0.168-1.397l0.008 0.040c-0.077-0.324-0.264-0.596-0.518-0.781l-0.004-0.003c-0.291-0.145-0.634-0.229-0.997-0.229s-0.706 0.085-1.011 0.235l0.013-0.006c-0.259 0.187-0.446 0.459-0.52 0.774l-0.002 0.009c-0.101 0.408-0.159 0.876-0.159 1.357 0 0.063 0.001 0.125 0.003 0.187l-0-0.009v2.851c-0 0.019-0 0.042-0 0.064 0 1.786 0.306 3.5 0.869 5.093l-0.033-0.107h-2.533c-0.586-1.434-0.925-3.099-0.925-4.843 0-0.062 0-0.123 0.001-0.185l-0 0.009v-2.914q0-2.345 1.097-3.54c0.731-0.799 1.802-1.196 3.227-1.196 0.078-0.005 0.169-0.008 0.261-0.008 1.152 0 2.194 0.466 2.95 1.22l-0-0z"></path>
<path fill="#6d6e71" d="M78.057 22.319q0 4.084-4.36 4.078t-4.339-4.078c0-2.381 1.102-3.734 3.3-4.042v-0.695c0-0.008 0-0.018 0-0.028 0-0.243-0.083-0.466-0.221-0.643l0.002 0.002c-0.228-0.267-0.474-0.504-0.741-0.718l-0.011-0.008c-0.19-0.154-0.361-0.312-0.519-0.483l-0.003-0.003c-0.118-0.148-0.213-0.322-0.274-0.511l-0.003-0.012c-0.074-0.229-0.117-0.493-0.117-0.767 0-0.033 0.001-0.066 0.002-0.1l-0 0.005v-0.574h2.689v0.277c-0 0.011-0.001 0.024-0.001 0.037 0 0.212 0.069 0.407 0.185 0.566l-0.002-0.003c0.191 0.222 0.4 0.419 0.627 0.593l0.010 0.007c0.311 0.23 0.57 0.509 0.771 0.828l0.007 0.013c0.156 0.298 0.247 0.65 0.247 1.025 0 0.033-0.001 0.065-0.002 0.098l0-0.005v1.201q2.752 0.674 2.752 3.937zM74.992 23.796c0.26-0.362 0.415-0.814 0.415-1.303 0-0.067-0.003-0.134-0.009-0.199l0.001 0.009c0.005-0.057 0.008-0.124 0.008-0.191 0-0.488-0.156-0.941-0.42-1.31l0.005 0.007c-0.298-0.295-0.708-0.477-1.16-0.477-0.053 0-0.105 0.003-0.157 0.007l0.007-0c-0.043-0.004-0.093-0.007-0.144-0.007-0.441 0-0.84 0.183-1.125 0.476l-0 0c-0.254 0.363-0.405 0.813-0.405 1.298 0 0.069 0.003 0.137 0.009 0.204l-0.001-0.009c-0.005 0.057-0.008 0.124-0.008 0.191 0 0.488 0.156 0.941 0.42 1.31l-0.005-0.007c0.29 0.291 0.692 0.471 1.135 0.471 0.049 0 0.098-0.002 0.145-0.006l-0.006 0c0.046 0.005 0.099 0.007 0.153 0.007 0.446 0 0.85-0.18 1.143-0.472l-0 0z"></path>
<path fill="#6d6e71" d="M87.802 14.752q1.107 1.201 1.102 3.54v2.883c0.001 0.071 0.002 0.155 0.002 0.24 0 1.727-0.338 3.375-0.952 4.881l0.031-0.086h-2.569c0.53-1.473 0.836-3.173 0.836-4.945 0-0.031-0-0.063-0-0.094l0 0.005v-2.867c0.002-0.053 0.003-0.115 0.003-0.178 0-0.482-0.058-0.95-0.168-1.397l0.008 0.040c-0.079-0.324-0.265-0.595-0.518-0.781l-0.004-0.003c-0.291-0.145-0.634-0.229-0.997-0.229s-0.706 0.085-1.011 0.235l0.013-0.006c-0.258 0.187-0.445 0.459-0.52 0.774l-0.002 0.009c-0.098 0.41-0.154 0.881-0.154 1.365 0 0.060 0.001 0.119 0.003 0.179l-0-0.009v2.851c-0 0.017-0 0.037-0 0.058 0 1.787 0.304 3.504 0.863 5.1l-0.033-0.108h-2.569c-0.582-1.437-0.92-3.103-0.92-4.848 0-0.060 0-0.119 0.001-0.179l-0 0.009v-2.914q0-2.345 1.091-3.54t3.258-1.159c0.091-0.007 0.196-0.011 0.303-0.011 1.131 0 2.156 0.453 2.904 1.187l-0.001-0.001z"></path>
<path fill="#6d6e71" d="M91.352 13.744h2.642v8.538c-0.006 0.059-0.009 0.129-0.009 0.199 0 0.497 0.166 0.955 0.446 1.321l-0.004-0.005c0.323 0.294 0.754 0.473 1.227 0.473 0.062 0 0.124-0.003 0.185-0.009l-0.008 0.001c0.053 0.005 0.114 0.008 0.175 0.008 0.473 0 0.904-0.177 1.231-0.469l-0.002 0.002c0.276-0.354 0.443-0.805 0.443-1.295 0-0.072-0.004-0.142-0.010-0.212l0.001 0.009c0-0.008 0-0.017 0-0.026 0-0.277-0.046-0.542-0.131-0.79l0.005 0.017c-0.137-0.362-0.269-0.655-0.415-0.939l0.024 0.051c-0.163-0.302-0.318-0.659-0.444-1.030l-0.015-0.051c-0.096-0.304-0.152-0.654-0.152-1.016 0-0.010 0-0.020 0-0.030v0.002-0.261h2.674c0.008 0.325 0.061 0.635 0.153 0.927l-0.006-0.024c0.089 0.266 0.225 0.601 0.407 1.008s0.345 0.841 0.439 1.138c0.086 0.298 0.136 0.64 0.136 0.994 0 0.018-0 0.035-0 0.053l0-0.003q0 4.084-4.496 4.078t-4.496-4.094z"></path>
<path fill="#6d6e71" d="M109.99 14.752c0.731 0.799 1.102 1.979 1.102 3.54v2.883c0.002 0.079 0.003 0.172 0.003 0.265 0 1.717-0.335 3.357-0.942 4.856l0.031-0.087h-2.569c0.53-1.473 0.836-3.173 0.836-4.945 0-0.031-0-0.063-0-0.094l0 0.005v-2.867c0.002-0.053 0.003-0.115 0.003-0.178 0-0.482-0.058-0.95-0.168-1.397l0.008 0.040c-0.077-0.324-0.264-0.596-0.518-0.781l-0.004-0.003c-0.291-0.145-0.634-0.229-0.997-0.229s-0.706 0.085-1.011 0.235l0.013-0.006c-0.259 0.187-0.446 0.459-0.52 0.774l-0.002 0.009c-0.101 0.408-0.159 0.876-0.159 1.357 0 0.063 0.001 0.125 0.003 0.187l-0-0.009v2.851c-0 0.017-0 0.037-0 0.058 0 1.787 0.304 3.504 0.863 5.1l-0.033-0.108h-2.569c-0.582-1.437-0.92-3.103-0.92-4.848 0-0.060 0-0.119 0.001-0.179l-0 0.009v-2.914q0-2.345 1.097-3.54t3.232-1.159c0.092-0.007 0.198-0.011 0.306-0.011 1.135 0 2.164 0.453 2.917 1.187l-0.001-0.001z"></path>
<path fill="#00aeef" d="M15.896 17.718c0.146 1.509 0.225 2.298-1.003 3.587s-4.449 3.812-7.723 5.697c-1.302 0.782-2.829 1.543-4.417 2.186l-0.226 0.081c-1.044 0.376-1.927 0.522-2.366-0.225-0.101-0.193-0.161-0.423-0.161-0.666s0.060-0.472 0.165-0.674l-0.004 0.008c1.144-3.076 4.418-8.825 6.548-12.569l0.674-1.17c3.279-5.661 7.634-12.595 8.491-13.708 0.125-0.162 0.35-0.35 0.559-0.23 0.099 0.077 0.162 0.196 0.162 0.33 0 0.040-0.006 0.080-0.016 0.117l0.001-0.003s-0.057 0.225-0.073 0.308c-1.415 5.723-1.264 11.337-0.611 16.93z"></path>
<path fill="#00aeef" d="M20.695 19.483c-1.384-0.632-2.089-0.956-2.611-2.663s-1.044-5.744-1.044-9.54c-0.001-0.078-0.001-0.171-0.001-0.263 0-1.726 0.131-3.421 0.385-5.076l-0.023 0.185c0.172-1.081 0.475-1.932 1.347-1.932 0.485 0.024 0.904 0.282 1.151 0.663l0.003 0.006c2.089 2.522 5.441 8.23 7.614 11.948l0.684 1.17c3.259 5.671 7.086 12.914 7.619 14.219 0.078 0.188 0.131 0.475-0.078 0.595-0.048 0.022-0.104 0.034-0.163 0.034-0.117 0-0.222-0.049-0.296-0.128l-0-0-0.23-0.219c-4.24-4.094-9.185-6.768-14.355-8.997z"></path>
<path fill="#00aeef" d="M16.768 22.752c1.238-0.883 1.88-1.342 3.598-0.924s5.53 1.958 8.799 3.843c1.632 0.933 3.031 1.888 4.349 2.94l-0.067-0.052c0.846 0.715 1.426 1.399 0.987 2.157-0.252 0.383-0.671 0.638-1.15 0.663l-0.004 0c-3.232 0.554-9.849 0.595-14.151 0.616h-1.342c-6.548 0-14.731-0.308-16.12-0.522-0.204 0-0.475-0.125-0.475-0.371s0.178-0.298 0.308-0.345l0.303-0.089c5.666-1.619 10.449-4.559 14.966-7.916z"></path>
</svg>
